<svg width="20" height="9" viewBox="0 0 20 9" fill="none" xmlns="http://www.w3.org/2000/svg">
<rect width="20" height="9" fill="#DFDFDF"/>
<g id="&#208;&#147;&#208;&#187;&#208;&#176;&#208;&#178;&#208;&#189;&#208;&#176;&#209;&#143; &#209;&#129;&#209;&#130;&#209;&#128;&#208;&#176;&#208;&#189;&#208;&#184;&#209;&#134;&#208;&#176;">
<path d="M-4028 -1143C-4028 -1144.1 -4027.1 -1145 -4026 -1145H15101C15102.1 -1145 15103 -1144.1 15103 -1143V5105C15103 5106.1 15102.1 5107 15101 5107H-4026C-4027.1 5107 -4028 5106.1 -4028 5105V-1143Z" fill="#CECECE"/>
<path d="M-4026 -1144H15101V-1146H-4026V-1144ZM15102 -1143V5105H15104V-1143H15102ZM15101 5106H-4026V5108H15101V5106ZM-4027 5105V-1143H-4029V5105H-4027ZM-4026 5106C-4026.55 5106 -4027 5105.55 -4027 5105H-4029C-4029 5106.66 -4027.66 5108 -4026 5108V5106ZM15102 5105C15102 5105.55 15101.6 5106 15101 5106V5108C15102.7 5108 15104 5106.66 15104 5105H15102ZM15101 -1144C15101.6 -1144 15102 -1143.55 15102 -1143H15104C15104 -1144.66 15102.7 -1146 15101 -1146V-1144ZM-4026 -1146C-4027.66 -1146 -4029 -1144.66 -4029 -1143H-4027C-4027 -1143.55 -4026.55 -1144 -4026 -1144V-1146Z" fill="white" fill-opacity="0.1"/>
<g id="&#208;&#147;&#208;&#187;&#208;&#176;&#208;&#178;&#208;&#189;&#208;&#176;&#209;&#143; &#209;&#129;&#209;&#130;&#209;&#128;&#208;&#176;&#208;&#189;&#208;&#184;&#209;&#134;&#208;&#176; &#208;&#186;&#208;&#190;&#208;&#189;&#209;&#130;&#208;&#181;&#208;&#185;&#208;&#189;&#208;&#181;&#209;&#128; 1440px" clip-path="url(#clip0_49_2)">
<rect width="1920" height="5600" transform="translate(-1661 -885)" fill="white"/>
<g id="1 &#209;&#141;&#208;&#186;&#209;&#128;&#208;&#176;&#208;&#189;">
<g id="&#208;&#147;&#209;&#128;&#209;&#131;&#208;&#191;&#208;&#191;&#209;&#139;">
<g id="button">
<path id="Vector 6" d="M19 1L10 7L1 1" stroke="#6EC2A7" stroke-width="2" stroke-linecap="round"/>
</g>
</g>
</g>
</g>
</g>
<defs>
<clipPath id="clip0_49_2">
<rect width="1920" height="5600" fill="white" transform="translate(-1661 -885)"/>
</clipPath>
</defs>
</svg>
