<svg width="30" height="30" viewBox="0 0 30 30" fill="none" xmlns="http://www.w3.org/2000/svg">
<path d="M25.2795 15.6571C24.548 11.7556 24.1823 9.80491 22.7937 8.65245C21.405 7.5 19.4203 7.5 15.4508 7.5H14.5493C10.5799 7.5 8.59513 7.5 7.2065 8.65245C5.81788 9.80491 5.45211 11.7556 4.72059 15.6571C3.69194 21.1432 3.17761 23.8864 4.67714 25.6931C6.17666 27.5 8.96755 27.5 14.5493 27.5H15.4508C21.0325 27.5 23.8234 27.5 25.323 25.6931C26.1929 24.6449 26.385 23.2815 26.1921 21.25" stroke="white" stroke-width="1.5" stroke-linecap="round"/>
<path d="M11.25 7.5V6.25C11.25 4.17894 12.9289 2.5 15 2.5C17.0711 2.5 18.75 4.17894 18.75 6.25V7.5" stroke="white" stroke-width="1.5" stroke-linecap="round"/>
</svg>
