<svg width="30" height="30" viewBox="0 0 30 30" fill="none" xmlns="http://www.w3.org/2000/svg">
<g id="Frame">
<g id="SVGRepo_iconCarrier">
<path id="Vector" d="M15.4375 6.70795L14.762 7.35808C14.9388 7.5417 15.1826 7.64545 15.4375 7.64545C15.6924 7.64545 15.9362 7.5417 16.113 7.35808L15.4375 6.70795ZM9.18826 20.3583C8.78848 20.0293 8.19766 20.0867 7.86864 20.4864C7.53961 20.8862 7.59697 21.477 7.99676 21.806L9.18826 20.3583ZM3.36499 16.5965C3.61343 17.0508 4.18309 17.2177 4.63735 16.9692C5.09162 16.7207 5.25846 16.151 5.01001 15.6968L3.36499 16.5965ZM3.875 11.2535C3.875 8.56495 5.39421 6.31031 7.46795 5.3624C9.48259 4.44151 12.1896 4.68539 14.762 7.35808L16.113 6.05783C13.0606 2.88656 9.51761 2.3639 6.68845 3.65711C3.91839 4.92331 2 7.86345 2 11.2535H3.875ZM11.0593 24.207C11.6996 24.7118 12.3869 25.25 13.0835 25.657C13.7799 26.0639 14.5745 26.3947 15.4375 26.3947V24.5197C15.0505 24.5197 14.5951 24.3688 14.0295 24.0382C13.4641 23.7078 12.8776 23.2529 12.2201 22.7345L11.0593 24.207ZM19.8158 24.207C21.599 22.8012 23.8785 21.1904 25.6666 19.1769C27.4869 17.1273 28.875 14.5854 28.875 11.2535H27C27 14.0003 25.876 16.1174 24.2646 17.9319C22.6211 19.7825 20.5495 21.241 18.655 22.7345L19.8158 24.207ZM28.875 11.2535C28.875 7.86345 26.9566 4.92331 24.1865 3.65711C21.3574 2.3639 17.8144 2.88656 14.762 6.05783L16.113 7.35808C18.6854 4.68539 21.3924 4.44151 23.407 5.3624C25.4808 6.31031 27 8.56495 27 11.2535H28.875ZM18.655 22.7345C17.9974 23.2529 17.4109 23.7078 16.8455 24.0382C16.2799 24.3688 15.8245 24.5197 15.4375 24.5197V26.3947C16.3005 26.3947 17.0951 26.0639 17.7915 25.657C18.4881 25.25 19.1754 24.7118 19.8158 24.207L18.655 22.7345ZM12.2201 22.7345C11.2252 21.9503 10.2141 21.2025 9.18826 20.3583L7.99676 21.806C9.0346 22.6602 10.1309 23.4752 11.0593 24.207L12.2201 22.7345ZM5.01001 15.6968C4.3085 14.4142 3.875 12.9613 3.875 11.2535H2C2 13.3004 2.52494 15.0605 3.36499 16.5965L5.01001 15.6968Z" fill="white"/>
</g>
</g>
</svg>
