<svg width="37" height="38" viewBox="0 0 37 38" fill="none" xmlns="http://www.w3.org/2000/svg">
<g id="filter-alt">
<g id="SVGRepo_iconCarrier">
<path id="primary-stroke" d="M4.625 29.792H26.2083M10.7917 19.0003H32.375M21.5833 8.20866H32.375M15.4167 8.20866H4.625" stroke="white" stroke-width="2" stroke-linecap="round" stroke-linejoin="round"/>
<path id="secondary-stroke" d="M29.2917 26.7083C29.9015 26.7083 30.4976 26.8892 31.0047 27.228C31.5117 27.5668 31.9069 28.0483 32.1403 28.6117C32.3737 29.1751 32.4347 29.7951 32.3158 30.3932C32.1968 30.9913 31.9031 31.5407 31.4719 31.9719C31.0407 32.4031 30.4913 32.6968 29.8932 32.8158C29.2951 32.9347 28.6751 32.8737 28.1117 32.6403C27.5483 32.4069 27.0668 32.0117 26.728 31.5047C26.3892 30.9976 26.2083 30.4015 26.2083 29.7917C26.2083 28.9739 26.5332 28.1897 27.1114 27.6114C27.6897 27.0332 28.4739 26.7083 29.2917 26.7083ZM4.625 19C4.625 19.6098 4.80583 20.206 5.14464 20.713C5.48344 21.2201 5.96499 21.6153 6.52839 21.8486C7.0918 22.082 7.71175 22.1431 8.30986 22.0241C8.90797 21.9051 9.45737 21.6115 9.88858 21.1802C10.3198 20.749 10.6135 20.1996 10.7324 19.6015C10.8514 19.0034 10.7903 18.3835 10.557 17.8201C10.3236 17.2567 9.92839 16.7751 9.42134 16.4363C8.91429 16.0975 8.31816 15.9167 7.70833 15.9167C6.89058 15.9167 6.10632 16.2415 5.52809 16.8198C4.94985 17.398 4.625 18.1822 4.625 19ZM15.4167 8.20833C15.4167 8.81816 15.5975 9.41429 15.9363 9.92134C16.2751 10.4284 16.7567 10.8236 17.3201 11.057C17.8835 11.2903 18.5034 11.3514 19.1015 11.2324C19.6996 11.1134 20.249 10.8198 20.6802 10.3886C21.1115 9.95737 21.4051 9.40797 21.5241 8.80986C21.6431 8.21175 21.582 7.5918 21.3486 7.02839C21.1153 6.46499 20.7201 5.98344 20.213 5.64464C19.706 5.30584 19.1098 5.125 18.5 5.125C17.6822 5.125 16.898 5.44985 16.3198 6.02809C15.7415 6.60633 15.4167 7.39058 15.4167 8.20833Z" stroke="white" stroke-width="2" stroke-linecap="round" stroke-linejoin="round"/>
</g>
</g>
</svg>
