<svg width="25" height="24" viewBox="0 0 25 24" fill="none" xmlns="http://www.w3.org/2000/svg">
<path id="Star 4" d="M11.5489 0.927052C11.8483 0.00574112 13.1517 0.00573993 13.4511 0.927051L15.6432 7.67376C15.7771 8.08578 16.161 8.36475 16.5943 8.36475H23.6882C24.6569 8.36475 25.0597 9.60436 24.2759 10.1738L18.5369 14.3435C18.1864 14.5981 18.0397 15.0495 18.1736 15.4615L20.3657 22.2082C20.6651 23.1295 19.6106 23.8956 18.8269 23.3262L13.0878 19.1565C12.7373 18.9019 12.2627 18.9019 11.9122 19.1565L6.17312 23.3262C5.38941 23.8956 4.33493 23.1295 4.63428 22.2082L6.82642 15.4615C6.96029 15.0495 6.81363 14.5981 6.46315 14.3435L0.724051 10.1738C-0.0596628 9.60436 0.343112 8.36475 1.31184 8.36475H8.40575C8.83897 8.36475 9.22293 8.08578 9.3568 7.67376L11.5489 0.927052Z" fill="#303030"/>
</svg>
