<svg width="26" height="24" viewBox="0 0 26 24" fill="none" xmlns="http://www.w3.org/2000/svg">
<rect width="26" height="24" fill="#DFDFDF"/>
<g id="&#208;&#147;&#208;&#187;&#208;&#176;&#208;&#178;&#208;&#189;&#208;&#176;&#209;&#143; &#209;&#129;&#209;&#130;&#209;&#128;&#208;&#176;&#208;&#189;&#208;&#184;&#209;&#134;&#208;&#176;">
<path d="M-4509 -4949C-4509 -4950.1 -4508.1 -4951 -4507 -4951H14620C14621.1 -4951 14622 -4950.1 14622 -4949V1299C14622 1300.1 14621.1 1301 14620 1301H-4507C-4508.1 1301 -4509 1300.1 -4509 1299V-4949Z" fill="#CECECE"/>
<path d="M-4507 -4950H14620V-4952H-4507V-4950ZM14621 -4949V1299H14623V-4949H14621ZM14620 1300H-4507V1302H14620V1300ZM-4508 1299V-4949H-4510V1299H-4508ZM-4507 1300C-4507.55 1300 -4508 1299.55 -4508 1299H-4510C-4510 1300.66 -4508.66 1302 -4507 1302V1300ZM14621 1299C14621 1299.55 14620.6 1300 14620 1300V1302C14621.7 1302 14623 1300.66 14623 1299H14621ZM14620 -4950C14620.6 -4950 14621 -4949.55 14621 -4949H14623C14623 -4950.66 14621.7 -4952 14620 -4952V-4950ZM-4507 -4952C-4508.66 -4952 -4510 -4950.66 -4510 -4949H-4508C-4508 -4949.55 -4507.55 -4950 -4507 -4950V-4952Z" fill="white" fill-opacity="0.1"/>
<g id="&#208;&#147;&#208;&#187;&#208;&#176;&#208;&#178;&#208;&#189;&#208;&#176;&#209;&#143; &#209;&#129;&#209;&#130;&#209;&#128;&#208;&#176;&#208;&#189;&#208;&#184;&#209;&#134;&#208;&#176; 375 px" clip-path="url(#clip0_49_2)">
<rect width="375" height="4812" transform="translate(-32 -4691)" fill="white"/>
<g id="Footer">
<g id="Contacts">
<g id="&#208;&#161;&#208;&#190;&#209;&#134; &#209;&#129;&#208;&#181;&#209;&#130;&#208;&#184;">
<g id="icon" filter="url(#filter0_d_49_2)">
<rect x="-12" y="-13" width="50" height="50" rx="10" fill="#FAA6AE"/>
<path id="Vector" d="M10.3098 15.579L9.89625 21.861C10.4879 21.861 10.7442 21.5865 11.0515 21.2569L13.8255 18.3937L19.5736 22.9398C20.6278 23.5743 21.3705 23.2402 21.6549 21.8925L25.4279 2.79907L25.4289 2.79795C25.7633 1.11495 24.8654 0.456833 23.8382 0.869706L1.66063 10.0395C0.147052 10.674 0.169969 11.5853 1.40333 11.9981L7.07326 13.9028L20.2434 5.00293C20.8632 4.55969 21.4267 4.80494 20.9632 5.24818L10.3098 15.579Z" fill="white"/>
</g>
</g>
</g>
</g>
</g>
</g>
<defs>
<filter id="filter0_d_49_2" x="-12" y="-13" width="54" height="54" filterUnits="userSpaceOnUse" color-interpolation-filters="sRGB">
<feFlood flood-opacity="0" result="BackgroundImageFix"/>
<feColorMatrix in="SourceAlpha" type="matrix" values="0 0 0 0 0 0 0 0 0 0 0 0 0 0 0 0 0 0 127 0" result="hardAlpha"/>
<feOffset dx="4" dy="4"/>
<feComposite in2="hardAlpha" operator="out"/>
<feColorMatrix type="matrix" values="0 0 0 0 0.188235 0 0 0 0 0.188235 0 0 0 0 0.188235 0 0 0 1 0"/>
<feBlend mode="normal" in2="BackgroundImageFix" result="effect1_dropShadow_49_2"/>
<feBlend mode="normal" in="SourceGraphic" in2="effect1_dropShadow_49_2" result="shape"/>
</filter>
<clipPath id="clip0_49_2">
<rect width="375" height="4812" fill="white" transform="translate(-32 -4691)"/>
</clipPath>
</defs>
</svg>
